<svg width="449" height="41" viewBox="0 0 449 41" fill="none" xmlns="http://www.w3.org/2000/svg">
<g filter="url(#filter0_d_9_35)">
<path d="M1.16343 4.576H20.0754V34H24.2514V4.576H42.1074L43.1634 0.399998H2.21943L1.16343 4.576ZM94.0693 34L95.1253 29.776H57.3013V19.264H85.6693L86.7253 15.088H53.1253V34H94.0693ZM53.1253 0.399998V4.576H94.0693L95.1253 0.399998H53.1253ZM113.84 19.264H136.928C139.808 19.264 142.16 21.664 142.16 24.544C142.16 27.424 139.808 29.776 136.928 29.776H109.616L108.56 34H136.928C142.16 34 146.384 29.776 146.384 24.544C146.384 19.312 142.16 15.088 136.928 15.088H113.84C110.96 15.088 108.56 12.736 108.56 9.856C108.56 6.928 110.96 4.576 113.84 4.576H141.152L142.16 0.399998H113.84C108.608 0.399998 104.384 4.624 104.384 9.856C104.384 15.04 108.608 19.264 113.84 19.264ZM164.489 19.264H187.577C190.457 19.264 192.809 21.664 192.809 24.544C192.809 27.424 190.457 29.776 187.577 29.776H160.265L159.209 34H187.577C192.809 34 197.033 29.776 197.033 24.544C197.033 19.312 192.809 15.088 187.577 15.088H164.489C161.609 15.088 159.209 12.736 159.209 9.856C159.209 6.928 161.609 4.576 164.489 4.576H191.801L192.809 0.399998H164.489C159.257 0.399998 155.033 4.624 155.033 9.856C155.033 15.04 159.257 19.264 164.489 19.264ZM250.142 34L251.198 29.776H213.374V19.264H241.742L242.798 15.088H209.198V34H250.142ZM209.198 0.399998V4.576H250.142L251.198 0.399998H209.198ZM262.895 0.399998V4.576H293.327C297.407 4.576 300.671 7.888 300.671 11.92C300.671 16 297.407 19.312 293.327 19.312H262.895V34H267.119V23.488H283.199L297.839 34H304.895L290.303 23.488H293.327C299.711 23.488 304.895 18.304 304.895 11.92C304.895 5.584 299.711 0.399998 293.327 0.399998H262.895ZM328.983 0.399998L310.263 34H315.111L331.239 4.96L347.415 34H352.263L333.543 0.399998H328.983ZM367.556 34H399.044L400.1 29.776H367.556C364.628 29.776 362.324 27.424 362.324 24.544V9.808C362.324 6.928 364.628 4.576 367.508 4.576H394.82L395.876 0.399998H367.508C362.324 0.399998 358.1 4.624 358.1 9.808V24.544C358.1 29.776 362.324 34 367.556 34ZM406.827 4.576H425.739V34H429.915V4.576H447.771L448.827 0.399998H407.883L406.827 4.576Z" fill="black" shape-rendering="crispEdges"/>
<path d="M1.16343 4.576L0.678692 4.45342L0.521259 5.076H1.16343V4.576ZM20.0754 4.576H20.5754V4.076H20.0754V4.576ZM20.0754 34H19.5754V34.5H20.0754V34ZM24.2514 34V34.5H24.7514V34H24.2514ZM24.2514 4.576V4.076H23.7514V4.576H24.2514ZM42.1074 4.576V5.076H42.4967L42.5922 4.69858L42.1074 4.576ZM43.1634 0.399998L43.6482 0.522576L43.8056 -0.100002H43.1634V0.399998ZM2.21943 0.399998V-0.100002H1.83013L1.73469 0.277419L2.21943 0.399998ZM1.16343 5.076H20.0754V4.076H1.16343V5.076ZM19.5754 4.576V34H20.5754V4.576H19.5754ZM20.0754 34.5H24.2514V33.5H20.0754V34.5ZM24.7514 34V4.576H23.7514V34H24.7514ZM24.2514 5.076H42.1074V4.076H24.2514V5.076ZM42.5922 4.69858L43.6482 0.522576L42.6787 0.27742L41.6227 4.45342L42.5922 4.69858ZM43.1634 -0.100002H2.21943V0.899998H43.1634V-0.100002ZM1.73469 0.277419L0.678692 4.45342L1.64818 4.69858L2.70418 0.522576L1.73469 0.277419ZM94.0693 34V34.5H94.4597L94.5544 34.1213L94.0693 34ZM95.1253 29.776L95.6104 29.8973L95.7657 29.276H95.1253V29.776ZM57.3013 29.776H56.8013V30.276H57.3013V29.776ZM57.3013 19.264V18.764H56.8013V19.264H57.3013ZM85.6693 19.264V19.764H86.0586L86.1541 19.3866L85.6693 19.264ZM86.7253 15.088L87.2101 15.2106L87.3675 14.588H86.7253V15.088ZM53.1253 15.088V14.588H52.6253V15.088H53.1253ZM53.1253 34H52.6253V34.5H53.1253V34ZM53.1253 0.399998V-0.100002H52.6253V0.399998H53.1253ZM53.1253 4.576H52.6253V5.076H53.1253V4.576ZM94.0693 4.576V5.076H94.4586L94.5541 4.69858L94.0693 4.576ZM95.1253 0.399998L95.6101 0.522576L95.7675 -0.100002H95.1253V0.399998ZM94.5544 34.1213L95.6104 29.8973L94.6402 29.6547L93.5842 33.8787L94.5544 34.1213ZM95.1253 29.276H57.3013V30.276H95.1253V29.276ZM57.8013 29.776V19.264H56.8013V29.776H57.8013ZM57.3013 19.764H85.6693V18.764H57.3013V19.764ZM86.1541 19.3866L87.2101 15.2106L86.2406 14.9654L85.1846 19.1414L86.1541 19.3866ZM86.7253 14.588H53.1253V15.588H86.7253V14.588ZM52.6253 15.088V34H53.6253V15.088H52.6253ZM53.1253 34.5H94.0693V33.5H53.1253V34.5ZM52.6253 0.399998V4.576H53.6253V0.399998H52.6253ZM53.1253 5.076H94.0693V4.076H53.1253V5.076ZM94.5541 4.69858L95.6101 0.522576L94.6406 0.27742L93.5846 4.45342L94.5541 4.69858ZM95.1253 -0.100002H53.1253V0.899998H95.1253V-0.100002ZM109.616 29.776V29.276H109.226L109.131 29.6547L109.616 29.776ZM108.56 34L108.075 33.8787L107.92 34.5H108.56V34ZM141.152 4.576V5.076H141.546L141.638 4.69332L141.152 4.576ZM142.16 0.399998L142.646 0.517318L142.795 -0.100002H142.16V0.399998ZM113.84 19.764H136.928V18.764H113.84V19.764ZM136.928 19.764C139.526 19.764 141.66 21.9342 141.66 24.544H142.66C142.66 21.3938 140.09 18.764 136.928 18.764V19.764ZM141.66 24.544C141.66 27.1479 139.532 29.276 136.928 29.276V30.276C140.084 30.276 142.66 27.7001 142.66 24.544H141.66ZM136.928 29.276H109.616V30.276H136.928V29.276ZM109.131 29.6547L108.075 33.8787L109.045 34.1213L110.101 29.8973L109.131 29.6547ZM108.56 34.5H136.928V33.5H108.56V34.5ZM136.928 34.5C142.436 34.5 146.884 30.0521 146.884 24.544H145.884C145.884 29.4999 141.884 33.5 136.928 33.5V34.5ZM146.884 24.544C146.884 19.0359 142.436 14.588 136.928 14.588V15.588C141.884 15.588 145.884 19.5881 145.884 24.544H146.884ZM136.928 14.588H113.84V15.588H136.928V14.588ZM113.84 14.588C111.23 14.588 109.06 12.4539 109.06 9.856H108.06C108.06 13.0181 110.69 15.588 113.84 15.588V14.588ZM109.06 9.856C109.06 7.20709 111.233 5.076 113.84 5.076V4.076C110.687 4.076 108.06 6.64891 108.06 9.856H109.06ZM113.84 5.076H141.152V4.076H113.84V5.076ZM141.638 4.69332L142.646 0.517318L141.674 0.282678L140.666 4.45868L141.638 4.69332ZM142.16 -0.100002H113.84V0.899998H142.16V-0.100002ZM113.84 -0.100002C108.332 -0.100002 103.884 4.34786 103.884 9.856H104.884C104.884 4.90014 108.884 0.899998 113.84 0.899998V-0.100002ZM103.884 9.856C103.884 15.3178 108.334 19.764 113.84 19.764V18.764C108.883 18.764 104.884 14.7622 104.884 9.856H103.884ZM160.265 29.776V29.276H159.875L159.78 29.6547L160.265 29.776ZM159.209 34L158.724 33.8787L158.569 34.5H159.209V34ZM191.801 4.576V5.076H192.195L192.287 4.69332L191.801 4.576ZM192.809 0.399998L193.295 0.517318L193.444 -0.100002H192.809V0.399998ZM164.489 19.764H187.577V18.764H164.489V19.764ZM187.577 19.764C190.175 19.764 192.309 21.9342 192.309 24.544H193.309C193.309 21.3938 190.739 18.764 187.577 18.764V19.764ZM192.309 24.544C192.309 27.1479 190.181 29.276 187.577 29.276V30.276C190.734 30.276 193.309 27.7001 193.309 24.544H192.309ZM187.577 29.276H160.265V30.276H187.577V29.276ZM159.78 29.6547L158.724 33.8787L159.695 34.1213L160.751 29.8973L159.78 29.6547ZM159.209 34.5H187.577V33.5H159.209V34.5ZM187.577 34.5C193.086 34.5 197.533 30.0521 197.533 24.544H196.533C196.533 29.4999 192.533 33.5 187.577 33.5V34.5ZM197.533 24.544C197.533 19.0359 193.086 14.588 187.577 14.588V15.588C192.533 15.588 196.533 19.5881 196.533 24.544H197.533ZM187.577 14.588H164.489V15.588H187.577V14.588ZM164.489 14.588C161.88 14.588 159.709 12.4539 159.709 9.856H158.709C158.709 13.0181 161.339 15.588 164.489 15.588V14.588ZM159.709 9.856C159.709 7.20709 161.883 5.076 164.489 5.076V4.076C161.336 4.076 158.709 6.64891 158.709 9.856H159.709ZM164.489 5.076H191.801V4.076H164.489V5.076ZM192.287 4.69332L193.295 0.517318L192.323 0.282678L191.315 4.45868L192.287 4.69332ZM192.809 -0.100002H164.489V0.899998H192.809V-0.100002ZM164.489 -0.100002C158.981 -0.100002 154.533 4.34786 154.533 9.856H155.533C155.533 4.90014 159.534 0.899998 164.489 0.899998V-0.100002ZM154.533 9.856C154.533 15.3178 158.983 19.764 164.489 19.764V18.764C159.532 18.764 155.533 14.7622 155.533 9.856H154.533ZM250.142 34V34.5H250.533L250.628 34.1213L250.142 34ZM251.198 29.776L251.684 29.8973L251.839 29.276H251.198V29.776ZM213.374 29.776H212.874V30.276H213.374V29.776ZM213.374 19.264V18.764H212.874V19.264H213.374ZM241.742 19.264V19.764H242.132L242.227 19.3866L241.742 19.264ZM242.798 15.088L243.283 15.2106L243.441 14.588H242.798V15.088ZM209.198 15.088V14.588H208.698V15.088H209.198ZM209.198 34H208.698V34.5H209.198V34ZM209.198 0.399998V-0.100002H208.698V0.399998H209.198ZM209.198 4.576H208.698V5.076H209.198V4.576ZM250.142 4.576V5.076H250.532L250.627 4.69858L250.142 4.576ZM251.198 0.399998L251.683 0.522576L251.841 -0.100002H251.198V0.399998ZM250.628 34.1213L251.684 29.8973L250.713 29.6547L249.657 33.8787L250.628 34.1213ZM251.198 29.276H213.374V30.276H251.198V29.276ZM213.874 29.776V19.264H212.874V29.776H213.874ZM213.374 19.764H241.742V18.764H213.374V19.764ZM242.227 19.3866L243.283 15.2106L242.314 14.9654L241.258 19.1414L242.227 19.3866ZM242.798 14.588H209.198V15.588H242.798V14.588ZM208.698 15.088V34H209.698V15.088H208.698ZM209.198 34.5H250.142V33.5H209.198V34.5ZM208.698 0.399998V4.576H209.698V0.399998H208.698ZM209.198 5.076H250.142V4.076H209.198V5.076ZM250.627 4.69858L251.683 0.522576L250.714 0.27742L249.658 4.45342L250.627 4.69858ZM251.198 -0.100002H209.198V0.899998H251.198V-0.100002ZM262.895 0.399998V-0.100002H262.395V0.399998H262.895ZM262.895 4.576H262.395V5.076H262.895V4.576ZM262.895 19.312V18.812H262.395V19.312H262.895ZM262.895 34H262.395V34.5H262.895V34ZM267.119 34V34.5H267.619V34H267.119ZM267.119 23.488V22.988H266.619V23.488H267.119ZM283.199 23.488L283.49 23.0819L283.36 22.988H283.199V23.488ZM297.839 34L297.547 34.4061L297.678 34.5H297.839V34ZM304.895 34V34.5H306.444L305.187 33.5943L304.895 34ZM290.303 23.488V22.988H288.753L290.01 23.8937L290.303 23.488ZM262.395 0.399998V4.576H263.395V0.399998H262.395ZM262.895 5.076H293.327V4.076H262.895V5.076ZM293.327 5.076C297.128 5.076 300.171 8.16201 300.171 11.92H301.171C301.171 7.61399 297.685 4.076 293.327 4.076V5.076ZM300.171 11.92C300.171 15.7281 297.126 18.812 293.327 18.812V19.812C297.687 19.812 301.171 16.2719 301.171 11.92H300.171ZM293.327 18.812H262.895V19.812H293.327V18.812ZM262.395 19.312V34H263.395V19.312H262.395ZM262.895 34.5H267.119V33.5H262.895V34.5ZM267.619 34V23.488H266.619V34H267.619ZM267.119 23.988H283.199V22.988H267.119V23.988ZM282.907 23.8941L297.547 34.4061L298.13 33.5939L283.49 23.0819L282.907 23.8941ZM297.839 34.5H304.895V33.5H297.839V34.5ZM305.187 33.5943L290.595 23.0823L290.01 23.8937L304.602 34.4057L305.187 33.5943ZM290.303 23.988H293.327V22.988H290.303V23.988ZM293.327 23.988C299.987 23.988 305.395 18.5801 305.395 11.92H304.395C304.395 18.0279 299.435 22.988 293.327 22.988V23.988ZM305.395 11.92C305.395 5.30651 299.985 -0.100002 293.327 -0.100002V0.899998C299.436 0.899998 304.395 5.86149 304.395 11.92H305.395ZM293.327 -0.100002H262.895V0.899998H293.327V-0.100002ZM328.983 0.399998V-0.100002H328.689L328.546 0.156647L328.983 0.399998ZM310.263 34L309.826 33.7566L309.412 34.5H310.263V34ZM315.111 34V34.5H315.405L315.548 34.2428L315.111 34ZM331.239 4.96L331.676 4.71669L331.238 3.93134L330.802 4.71724L331.239 4.96ZM347.415 34L346.978 34.2433L347.121 34.5H347.415V34ZM352.263 34V34.5H353.114L352.7 33.7566L352.263 34ZM333.543 0.399998L333.98 0.156647L333.837 -0.100002H333.543V0.399998ZM328.546 0.156647L309.826 33.7566L310.7 34.2434L329.42 0.643349L328.546 0.156647ZM310.263 34.5H315.111V33.5H310.263V34.5ZM315.548 34.2428L331.676 5.20276L330.802 4.71724L314.674 33.7572L315.548 34.2428ZM330.802 5.20331L346.978 34.2433L347.852 33.7567L331.676 4.71669L330.802 5.20331ZM347.415 34.5H352.263V33.5H347.415V34.5ZM352.7 33.7566L333.98 0.156647L333.106 0.643349L351.826 34.2434L352.7 33.7566ZM333.543 -0.100002H328.983V0.899998H333.543V-0.100002ZM399.044 34V34.5H399.434L399.529 34.1213L399.044 34ZM400.1 29.776L400.585 29.8973L400.74 29.276H400.1V29.776ZM394.82 4.576V5.076H395.209L395.304 4.69858L394.82 4.576ZM395.876 0.399998L396.36 0.522576L396.518 -0.100002H395.876V0.399998ZM367.556 34.5H399.044V33.5H367.556V34.5ZM399.529 34.1213L400.585 29.8973L399.615 29.6547L398.559 33.8787L399.529 34.1213ZM400.1 29.276H367.556V30.276H400.1V29.276ZM367.556 29.276C364.907 29.276 362.824 27.1509 362.824 24.544H361.824C361.824 27.6971 364.349 30.276 367.556 30.276V29.276ZM362.824 24.544V9.808H361.824V24.544H362.824ZM362.824 9.808C362.824 7.19812 364.91 5.076 367.508 5.076V4.076C364.346 4.076 361.824 6.65788 361.824 9.808H362.824ZM367.508 5.076H394.82V4.076H367.508V5.076ZM395.304 4.69858L396.36 0.522576L395.391 0.27742L394.335 4.45342L395.304 4.69858ZM395.876 -0.100002H367.508V0.899998H395.876V-0.100002ZM367.508 -0.100002C362.048 -0.100002 357.6 4.34786 357.6 9.808H358.6C358.6 4.90014 362.6 0.899998 367.508 0.899998V-0.100002ZM357.6 9.808V24.544H358.6V9.808H357.6ZM357.6 24.544C357.6 30.0521 362.048 34.5 367.556 34.5V33.5C362.6 33.5 358.6 29.4999 358.6 24.544H357.6ZM406.827 4.576L406.342 4.45342L406.185 5.076H406.827V4.576ZM425.739 4.576H426.239V4.076H425.739V4.576ZM425.739 34H425.239V34.5H425.739V34ZM429.915 34V34.5H430.415V34H429.915ZM429.915 4.576V4.076H429.415V4.576H429.915ZM447.771 4.576V5.076H448.16L448.256 4.69858L447.771 4.576ZM448.827 0.399998L449.312 0.522576L449.469 -0.100002H448.827V0.399998ZM407.883 0.399998V-0.100002H407.494L407.398 0.277419L407.883 0.399998ZM406.827 5.076H425.739V4.076H406.827V5.076ZM425.239 4.576V34H426.239V4.576H425.239ZM425.739 34.5H429.915V33.5H425.739V34.5ZM430.415 34V4.576H429.415V34H430.415ZM429.915 5.076H447.771V4.076H429.915V5.076ZM448.256 4.69858L449.312 0.522576L448.342 0.27742L447.286 4.45342L448.256 4.69858ZM448.827 -0.100002H407.883V0.899998H448.827V-0.100002ZM407.398 0.277419L406.342 4.45342L407.312 4.69858L408.368 0.522576L407.398 0.277419Z" fill="black" fill-opacity="0.2"/>
</g>
<defs>
<filter id="filter0_d_9_35" x="-2.83655" y="0.399902" width="455.664" height="41.6001" filterUnits="userSpaceOnUse" color-interpolation-filters="sRGB">
<feFlood flood-opacity="0" result="BackgroundImageFix"/>
<feColorMatrix in="SourceAlpha" type="matrix" values="0 0 0 0 0 0 0 0 0 0 0 0 0 0 0 0 0 0 127 0" result="hardAlpha"/>
<feOffset dy="4"/>
<feGaussianBlur stdDeviation="2"/>
<feComposite in2="hardAlpha" operator="out"/>
<feColorMatrix type="matrix" values="0 0 0 0 0 0 0 0 0 0 0 0 0 0 0 0 0 0 0.15 0"/>
<feBlend mode="normal" in2="BackgroundImageFix" result="effect1_dropShadow_9_35"/>
<feBlend mode="normal" in="SourceGraphic" in2="effect1_dropShadow_9_35" result="shape"/>
</filter>
</defs>
</svg>
